<svg xmlns="http://www.w3.org/2000/svg" height="512" width="512"><rect id="backgroundrect" width="100%" height="100%" x="0" y="0" fill="none" stroke="none"/><g class="currentLayer" style=""><title>Layer 1</title><g id="Smartphone" class="selected" fill="#dadada" fill-opacity="1"><path d="m352 8h-192a40.045 40.045 0 0 0 -40 40v416a40.045 40.045 0 0 0 40 40h192a40.045 40.045 0 0 0 40-40v-416a40.045 40.045 0 0 0 -40-40zm-41.758 16-4.8 24h-98.883l-4.8-24zm65.758 440a24.027 24.027 0 0 1 -24 24h-192a24.027 24.027 0 0 1 -24-24v-416a24.027 24.027 0 0 1 24-24h25.441l6.714 33.569a8 8 0 0 0 7.845 6.431h112a8 8 0 0 0 7.845-6.431l6.714-33.569h25.441a24.027 24.027 0 0 1 24 24z" id="svg_1" fill="#dadada" fill-opacity="1"/><path d="m208 456h-48a8 8 0 0 0 0 16h48a8 8 0 0 0 0-16z" id="svg_2" fill="#dadada" fill-opacity="1"/><path d="m240 456h-8a8 8 0 0 0 0 16h8a8 8 0 0 0 0-16z" id="svg_3" fill="#dadada" fill-opacity="1"/></g></g></svg>